inDegrees=no
num_controls=7
num_derivatives=13
num_iterations=216
num_multipliers=7
num_parameters=0
num_slacks=7
num_states=26
objective=5.587239
objective_accelerations=0.431103
objective_balance=0.036354
objective_effort=0.437885
objective_height=4.585959
objective_ligament=0.095938
solver_duration=2341.068047
status=Solve_Succeeded
success=true
DataType=double
version=3
OpenSimVersion=4.4-2022-07-23-0e9fedc
endheader
time	/jointset/ground_pelvis/pelvis_tilt/value	/jointset/ground_pelvis/pelvis_tx/value	/jointset/ground_pelvis/pelvis_ty/value	/jointset/hip_l/hip_flexion_l/value	/jointset/hip_l/hip_adduction_l/value	/jointset/hip_l/hip_rotation_l/value	/jointset/back/lumbar_extension/value	/jointset/patellofemoral_l/patellar_flexion_l/value	/jointset/knee_l/knee_flexion_l/value	/jointset/knee_l/knee_adduction_l/value	/jointset/knee_l/knee_rotation_l/value	/jointset/ankle_l/ankle_angle_l/value	/jointset/subtalar_l/subtalar_angle_l/value	/jointset/ground_pelvis/pelvis_tilt/speed	/jointset/ground_pelvis/pelvis_tx/speed	/jointset/ground_pelvis/pelvis_ty/speed	/jointset/hip_l/hip_flexion_l/speed	/jointset/hip_l/hip_adduction_l/speed	/jointset/hip_l/hip_rotation_l/speed	/jointset/back/lumbar_extension/speed	/jointset/patellofemoral_l/patellar_flexion_l/speed	/jointset/knee_l/knee_flexion_l/speed	/jointset/knee_l/knee_adduction_l/speed	/jointset/knee_l/knee_rotation_l/speed	/jointset/ankle_l/ankle_angle_l/speed	/jointset/subtalar_l/subtalar_angle_l/speed	/forceset/tau_hip_flexion_l	/forceset/tau_hip_adduction_l	/forceset/tau_hip_rotation_l	/forceset/tau_knee_flexion_l	/forceset/tau_ankle_angle_l	/forceset/tau_subtalar_angle_l	/forceset/tau_lumbar_extension	lambda_cid13_p0	lambda_cid13_p1	lambda_cid13_p2	lambda_cid13_p3	lambda_cid13_p4	lambda_cid13_p5	lambda_cid14_p0	/jointset/ground_pelvis/pelvis_tilt/accel	/jointset/ground_pelvis/pelvis_tx/accel	/jointset/ground_pelvis/pelvis_ty/accel	/jointset/hip_l/hip_flexion_l/accel	/jointset/hip_l/hip_adduction_l/accel	/jointset/hip_l/hip_rotation_l/accel	/jointset/back/lumbar_extension/accel	/jointset/patellofemoral_l/patellar_flexion_l/accel	/jointset/knee_l/knee_flexion_l/accel	/jointset/knee_l/knee_adduction_l/accel	/jointset/knee_l/knee_rotation_l/accel	/jointset/ankle_l/ankle_angle_l/accel	/jointset/subtalar_l/subtalar_angle_l/accel	gamma_cid13_p0	gamma_cid13_p1	gamma_cid13_p2	gamma_cid13_p3	gamma_cid13_p4	gamma_cid13_p5	gamma_cid14_p0
0	-0.03682268510084606	0.05667756945727325	0.9203415906431177	0.3085811930696054	-0.2956404637335602	-0.3016070249937445	-0.3879500408040475	0.2499276582270844	0.249927658227084	-0.1745329251994329	-0.1745327245329655	-0.0008036543073733089	0.0004376133855137604	0	0	0	0	0	0	0	0	0	0	0	0	0	0.06283574286547956	-0.05107187734985488	-0.01935121680892831	-0.2393906388286152	0.1866750227275551	-0.00600257927421141	0.012867805347029	16.41492724308896	-2.803704140065207	2.889960795637246	7.483725075154718	-630.6880536304435	-80.3337675355278	-23.19696735534413	-0.7518404727515919	-1.824756105223823	-0.7932133068696423	8.011671279762396	-0.6813708583346054	2.875237419846044	-6.859286356858374	8.143499185619696	8.143499185619874	1.202354406312571	-0.05583018421604383	1.363735933039173	-0.2698515742087992	8.450684692907867e-10	1.171082306451356e-07	4.29497363394931e-08	-5.81238535579161e-09	8.332844071411276e-08	5.381022820245233e-09	4.149713789998771e-09
0.01	-0.03685698337667044	0.0565877333290273	0.9203028289955549	0.3089714336410505	-0.2956746729660598	-0.3014627314948852	-0.3882913535652937	0.2503266646566454	0.2503266646566467	-0.1744760195420577	-0.1745325562188628	-0.0007371219208329235	0.0004233962026161181	-0.006815128073251007	-0.01784400924858297	-0.007719738446803875	0.07762801968187702	-0.006808137396446985	0.02872197084704134	-0.06779443017201867	0.07943902412183111	0.07943902412183142	0.01132376926135118	3.348847433941146e-05	0.01330049042051532	-0.002809288471030498	0.05755692355827959	-0.05478309063787286	-0.01870466907314413	-0.2352388383095716	0.1810718690871189	0.0007914548107111599	0.01791989927526952	14.76694472162727	-5.444948332107986	3.287225974525039	7.102020022141485	-633.2061654463274	-85.39105520069968	-23.20153755461944	-0.6396758244639406	-1.745742037057485	-0.7564487880322659	7.575348727777153	-0.6755041965951547	2.850167013191228	-6.669303035795259	7.789763926950146	7.789763926950078	1.088701658633521	0.03291560790038755	1.312310635827091	-0.2813689195221791	-2.131690723211147e-08	1.150712648635495e-07	1.006507520761036e-07	1.587921323588333e-08	-6.199259173094188e-09	-3.164597273785589e-08	-2.295014263621452e-09
0.02	-0.03695809830319743	0.05632315336781912	0.9201878510286347	0.3101253506923892	-0.2957759573757828	-0.3010353202683437	-0.3892965669659444	0.2515091933077233	0.2515091933077232	-0.1743076099437075	-0.1745320575710868	-0.0005377636222334836	0.0003821058478137713	-0.01336333014058605	-0.03494876659244404	-0.01524326387146552	0.1527352959788259	-0.01341503544470995	0.0566235455364045	-0.1327801278809035	0.1567044443030755	0.1567044443030752	0.02230007742618719	6.606673433638054e-05	0.02656518241180591	-0.005414634380941321	0.05227810425107469	-0.05849430392589271	-0.01805812133737297	-0.2310870377905287	0.1754687154466816	0.007585488895631543	0.02297199320350763	13.18165335764733	-8.095529741451024	3.684106902928133	6.625395991633868	-634.7862718345096	-90.36822933702993	-23.2149905885314	-0.6984552715684013	-1.676905724279441	-0.7539707024411961	7.507522602776765	-0.641122988697805	2.711158188310399	-6.2975398642316	7.708778397502351	7.708778397502339	1.132862187009532	-0.05601222708454617	1.356576247194226	-0.2290630619848667	-4.347888293351372e-08	1.130342990819635e-07	1.583517678127142e-07	3.757081182755827e-08	-9.572695906030114e-08	-6.867296829595703e-08	-8.739742317241676e-09
0.03	-0.03712353305055151	0.05589115714411568	0.919998429964082	0.3120181443944302	-0.2959422024479981	-0.3003334103512322	-0.3909376139732816	0.2534536370198994	0.2534536370198968	-0.1740311246584051	-0.1745315902809942	-0.0002060613128541098	0.0003158422662916665	-0.01967659161856302	-0.05133355981012865	-0.02262362438976721	0.2254161282440686	-0.0197948491421696	0.08362201657721516	-0.1949852467017639	0.2318235912745224	0.2318235912745231	0.03292875822862817	3.294392395611055e-05	0.03975608402341201	-0.007803587337447688	0.04652294001652244	-0.05371446651842318	-0.01740878212170152	-0.2267306781714751	0.1719781331416456	0.006431152753826595	0.0282376858829221	11.965787814174	-7.434515249607817	3.639493683527483	6.447275892104201	-636.3250883224948	-88.24173113920078	-23.23680069371945	-0.5907119213071562	-1.601720767988239	-0.7274895362500449	7.087259208087098	-0.6305785979732883	2.673709179966378	-6.115393858300903	7.359378592361218	7.359378592361378	1.017672453398095	0.02389455977304228	1.297468636997254	-0.2386732447498863	-6.082319558582499e-08	9.580796587157833e-08	2.062069695875106e-07	5.296244343117209e-08	-1.68115325586305e-07	-1.020855275200503e-07	-1.556849698896366e-08
0.04	-0.03735069047976406	0.05529882205874034	0.9197357211324012	0.3146255255530621	-0.2961710792647288	-0.2993656122001129	-0.3931873913622849	0.2561384513508662	0.2561384513508665	-0.1736503922797727	-0.1745312828454464	0.0002569743164120294	0.0002267167887512267	-0.02570786651233372	-0.06701653892682494	-0.02990081729708205	0.2956527872968733	-0.02594138434775984	0.1098011923380246	-0.25452620421413	0.3047785680617838	0.3047785680617857	0.04314949609253792	3.409582508828185e-05	0.05283184638915634	-0.009987013584608606	0.04076777578197632	-0.04893462911095122	-0.01675944290600571	-0.2223743185524203	0.1684875508366118	0.005276816612024548	0.03350337856233899	10.80806587861388	-6.781220153864439	3.59329991452717	6.173832738093292	-637.0022662957052	-86.0387876403268	-23.26630358642331	-0.64205795472715	-1.536542904081773	-0.7333371802438263	7.018687960289154	-0.5944672903239251	2.547299132310136	-5.76470760253272	7.275944360665251	7.275944360665274	1.051273599303285	-0.04915728478207367	1.333548398021874	-0.1879577201157793	-7.806817497939209e-08	7.826844982760971e-08	2.538591648888676e-07	6.822417880822796e-08	-2.401503037955831e-07	-1.354235622836485e-07	-2.240516973528569e-08
0.05	-0.03763701988115915	0.05455318982841853	0.9194005995595675	0.3179235109890791	-0.2964601624888364	-0.2981405047064254	-0.3960191363125032	0.2595422369911126	0.2595422369911153	-0.173169376893721	-0.1745311672169625	0.0008502442845941947	0.0001168972650730613	-0.03151431357317689	-0.08198987944616302	-0.03711738657893443	0.3635428358441027	-0.03182978720578764	0.1350806007931024	-0.3113924003857004	0.3756184451250025	0.3756184451250042	0.05298205460172755	-3.164636877692577e-06	0.06580261318125714	-0.01193644886881805	0.03494132344514515	-0.04748265548016723	-0.01608647343626141	-0.218676995608231	0.1645890991216547	0.007150406344828568	0.03880527451158388	9.622619320067843	-7.403395739226576	3.710811719050827	5.834685842497351	-637.837042338274	-86.54119051186976	-23.30266052980654	-0.5433859496212597	-1.459711703989476	-0.7149488107103247	6.613935310115945	-0.5792485318457401	2.497269766843282	-5.583017807892324	6.933996686009436	6.933996686009408	0.938555461981657	0.02020252288053937	1.27590935729892	-0.192411332642398	-9.069739075216777e-08	4.759160834859461e-08	2.883380574146791e-07	7.835333391213169e-08	-2.96017475874066e-07	-1.62996691955259e-07	-2.901570211196921e-08
0.06	-0.03798010332673429	0.05366142777727741	0.9189934858922045	0.3218883513122028	-0.2968067740911849	-0.2966668015152396	-0.3994066316611221	0.2636436188633662	0.2636436188633658	-0.1725921742255253	-0.1745311816031344	0.001572635628196322	-1.121159146097292e-05	-0.03705867534835486	-0.09624250309068692	-0.04429923620296273	0.4290237647183764	-0.03744705999595667	0.1595203318376476	-0.3656762838941962	0.4442978144625917	0.4442978144625934	0.06238695252111139	8.092892531872313e-06	0.07865612147314738	-0.01364488015578231	0.02911487110830796	-0.04603068184938363	-0.01541350396654622	-0.2149796726640406	0.1606906474066969	0.009023996077632388	0.04410717046082467	8.489619235555351	-8.03325162939047	3.827831573470704	5.402280572335896	-637.8958483867347	-86.97558811035903	-23.34492795981108	-0.5896408975941113	-1.392399529118934	-0.7263932486790103	6.53686402569801	-0.540241276752174	2.379363650203608	-5.248245069917818	6.843842815539369	6.843842815539396	0.9657414813421248	-0.03945368650697011	1.310096697979758	-0.1397569206667421	-1.031322585830154e-07	1.636161632494599e-08	3.222622845604676e-07	8.826638037295532e-08	-3.512038982207259e-07	-1.90327088780891e-07	-3.561671278887847e-08
